<svg width="50" height="50" viewBox="0 0 50 50" fill="none" xmlns="http://www.w3.org/2000/svg">
<g clip-path="url(#clip0_3_951)">
<path d="M3.125 -0.000139428L0 3.12486L6.875 12.753C7.16443 13.1584 7.54659 13.4888 7.98962 13.7166C8.43266 13.9444 8.92372 14.0629 9.42188 14.0624H9.64062C10.0515 14.062 10.4584 14.1427 10.8381 14.2999C11.2177 14.457 11.5626 14.6874 11.8531 14.978L20.2125 23.3374L12.0344 31.6311C10.6356 31.2194 9.16013 31.1392 7.72499 31.3971C6.28986 31.6549 4.93454 32.2436 3.76656 33.1165C2.59858 33.9893 1.65006 35.1224 0.996261 36.4257C0.342457 37.729 0.00135063 39.1667 0 40.6249C0.00187332 41.9684 0.292512 43.2959 0.852223 44.5173C1.41194 45.7387 2.22764 46.8256 3.24408 47.7042C4.26052 48.5829 5.45394 49.2328 6.74349 49.6099C8.03303 49.987 9.38857 50.0826 10.7183 49.8901C12.048 49.6975 13.3208 49.2215 14.4504 48.4941C15.58 47.7667 16.5401 46.805 17.2656 45.6742C17.9912 44.5434 18.4651 43.2698 18.6555 41.9398C18.8458 40.6098 18.748 39.2544 18.3687 37.9655L26.6625 29.7874L29.6875 32.8124L28.7344 35.6686C28.5512 36.2192 28.525 36.8098 28.6585 37.3744C28.7921 37.9391 29.0802 38.4554 29.4906 38.8655L39.9781 49.353C40.5641 49.9388 41.3589 50.2679 42.1875 50.2679C43.0161 50.2679 43.8109 49.9388 44.3969 49.353L49.3531 44.3967C49.939 43.8107 50.2681 43.016 50.2681 42.1874C50.2681 41.3587 49.939 40.564 49.3531 39.978L38.8656 29.4905C38.4555 29.0801 37.9392 28.792 37.3746 28.6584C36.81 28.5248 36.2193 28.5511 35.6687 28.7342L32.8125 29.6874L29.8125 26.6874L38.1875 18.428C39.5768 18.7988 41.0328 18.8457 42.4431 18.5649C43.8534 18.2841 45.1804 17.6832 46.3217 16.8085C47.463 15.9337 48.3883 14.8086 49.026 13.5197C49.6637 12.2309 49.997 10.8128 50 9.37486C50 8.53424 49.8906 7.71861 49.6812 6.94674L42.9938 13.6374L37.5 12.4999L36.3625 7.00924L43.0531 0.318611C41.4615 -0.109323 39.7853 -0.110122 38.1933 0.316295C36.6013 0.742711 35.1499 1.58127 33.9853 2.74745C32.8207 3.91363 31.9841 5.36621 31.5598 6.95878C31.1356 8.55135 31.1387 10.2276 31.5688 11.8186L23.3188 20.1874L14.9781 11.853C14.392 11.2671 14.0627 10.4723 14.0625 9.64361V9.42174C14.0625 8.92411 13.9438 8.43367 13.716 7.99122C13.4883 7.54877 13.1581 7.16711 12.7531 6.87799L3.125 -0.000139428ZM33.2687 33.2686C33.4139 33.1231 33.5863 33.0077 33.7761 32.9289C33.966 32.8501 34.1695 32.8096 34.375 32.8096C34.5805 32.8096 34.784 32.8501 34.9739 32.9289C35.1637 33.0077 35.3361 33.1231 35.4813 33.2686L44.8563 42.6436C45.0015 42.7889 45.1168 42.9613 45.1954 43.1512C45.274 43.341 45.3145 43.5444 45.3145 43.7499C45.3145 43.9553 45.274 44.1587 45.1954 44.3486C45.1168 44.5384 45.0015 44.7108 44.8563 44.8561C44.711 45.0014 44.5385 45.1166 44.3487 45.1952C44.1589 45.2739 43.9554 45.3143 43.75 45.3143C43.5446 45.3143 43.3411 45.2739 43.1513 45.1952C42.9615 45.1166 42.789 45.0014 42.6437 44.8561L33.2687 35.4811C33.1232 35.336 33.0078 35.1635 32.929 34.9737C32.8503 34.7839 32.8097 34.5804 32.8097 34.3749C32.8097 34.1693 32.8503 33.9658 32.929 33.776C33.0078 33.5862 33.1232 33.4138 33.2687 33.2686ZM9.375 34.3749L10.8469 35.1311L12.5 35.2124L13.3969 36.603L14.7875 37.4999L14.8687 39.153L15.625 40.6249L14.8687 42.0967L14.7875 43.7499L13.3969 44.6467L12.5 46.0374L10.8469 46.1186L9.375 46.8749L7.90313 46.1186L6.25 46.0374L5.35313 44.6467L3.9625 43.7499L3.88125 42.0967L3.125 40.6249L3.88125 39.153L3.9625 37.4999L5.35313 36.603L6.25 35.2124L7.90313 35.1311L9.375 34.3749Z" fill="white"/>
</g>
<defs>
<clipPath id="clip0_3_951">
<rect width="50" height="50" rx="10" fill="white"/>
</clipPath>
</defs>
</svg>
