<svg width="42" height="25" viewBox="0 0 42 25" fill="none" xmlns="http://www.w3.org/2000/svg">
<rect width="42" height="25" fill="#E5E5E5"/>
<g clip-path="url(#clip0_0_1)" filter="url(#filter0_d_0_1)">
<rect width="1920" height="8689" transform="translate(-654 -8576)" fill="white"/>
<rect width="1920" height="8689" transform="translate(-654 -8576)" fill="white"/>
<rect x="-654" y="-542" width="1921" height="655" fill="#222327"/>
<rect width="42" height="25" rx="5" fill="#00ACED"/>
<path d="M18.026 19.0007C24.064 19.0007 27.367 13.9977 27.367 9.66669C27.367 9.52669 27.367 9.38469 27.361 9.24469C28.0041 8.77918 28.5591 8.20284 29 7.54269C28.3993 7.80754 27.7628 7.9821 27.111 8.06069C27.7975 7.65033 28.3117 7.00466 28.558 6.24369C27.913 6.62582 27.207 6.89407 26.471 7.03669C25.9762 6.50972 25.3214 6.16061 24.6081 6.04345C23.8948 5.92629 23.1627 6.04761 22.5253 6.38863C21.888 6.72965 21.3808 7.27132 21.0824 7.92975C20.7841 8.58818 20.7112 9.32663 20.875 10.0307C19.5697 9.96524 18.2928 9.62616 17.127 9.03544C15.9613 8.44471 14.9327 7.61554 14.108 6.60169C13.6893 7.32478 13.5616 8.18009 13.7506 8.99396C13.9397 9.80782 14.4315 10.5192 15.126 10.9837C14.6055 10.966 14.0965 10.8263 13.64 10.5757V10.6207C13.6409 11.3782 13.9033 12.1121 14.3829 12.6985C14.8624 13.2848 15.5297 13.6876 16.272 13.8387C15.9903 13.9163 15.6992 13.955 15.407 13.9537C15.201 13.9543 14.9954 13.9352 14.793 13.8967C15.0028 14.5487 15.4113 15.1189 15.9612 15.5272C16.5112 15.9355 17.1751 16.1615 17.86 16.1737C16.6966 17.0875 15.2594 17.5831 13.78 17.5807C13.5193 17.5818 13.2588 17.5668 13 17.5357C14.5015 18.493 16.2453 19.0012 18.026 19.0007Z" fill="white"/>
</g>
<defs>
<filter id="filter0_d_0_1" x="-658" y="-8576" width="1928" height="8697" filterUnits="userSpaceOnUse" color-interpolation-filters="sRGB">
<feFlood flood-opacity="0" result="BackgroundImageFix"/>
<feColorMatrix in="SourceAlpha" type="matrix" values="0 0 0 0 0 0 0 0 0 0 0 0 0 0 0 0 0 0 127 0" result="hardAlpha"/>
<feOffset dy="4"/>
<feGaussianBlur stdDeviation="2"/>
<feComposite in2="hardAlpha" operator="out"/>
<feColorMatrix type="matrix" values="0 0 0 0 0 0 0 0 0 0 0 0 0 0 0 0 0 0 0.25 0"/>
<feBlend mode="normal" in2="BackgroundImageFix" result="effect1_dropShadow_0_1"/>
<feBlend mode="normal" in="SourceGraphic" in2="effect1_dropShadow_0_1" result="shape"/>
</filter>
<clipPath id="clip0_0_1">
<rect width="1920" height="8689" fill="white" transform="translate(-654 -8576)"/>
</clipPath>
</defs>
</svg>
