<svg width="42" height="25" viewBox="0 0 42 25" fill="none" xmlns="http://www.w3.org/2000/svg">
<rect width="42" height="25" fill="#E5E5E5"/>
<g clip-path="url(#clip0_0_1)" filter="url(#filter0_d_0_1)">
<rect width="1920" height="8689" transform="translate(-601 -8576)" fill="white"/>
<rect width="1920" height="8689" transform="translate(-601 -8576)" fill="white"/>
<rect x="-601" y="-542" width="1921" height="655" fill="#222327"/>
<rect width="42" height="25" rx="5" fill="#3B5998"/>
<path d="M19.0422 21V13.4923H17V10.7892H19.0422V8.4804C19.0422 6.66611 20.2486 5 23.0282 5C24.1537 5 24.9859 5.10488 24.9859 5.10488L24.9203 7.62914C24.9203 7.62914 24.0716 7.6211 23.1454 7.6211C22.143 7.6211 21.9824 8.07014 21.9824 8.81544V10.7892H25L24.8687 13.4923H21.9824V21H19.0422Z" fill="white"/>
</g>
<defs>
<filter id="filter0_d_0_1" x="-605" y="-8576" width="1928" height="8697" filterUnits="userSpaceOnUse" color-interpolation-filters="sRGB">
<feFlood flood-opacity="0" result="BackgroundImageFix"/>
<feColorMatrix in="SourceAlpha" type="matrix" values="0 0 0 0 0 0 0 0 0 0 0 0 0 0 0 0 0 0 127 0" result="hardAlpha"/>
<feOffset dy="4"/>
<feGaussianBlur stdDeviation="2"/>
<feComposite in2="hardAlpha" operator="out"/>
<feColorMatrix type="matrix" values="0 0 0 0 0 0 0 0 0 0 0 0 0 0 0 0 0 0 0.25 0"/>
<feBlend mode="normal" in2="BackgroundImageFix" result="effect1_dropShadow_0_1"/>
<feBlend mode="normal" in="SourceGraphic" in2="effect1_dropShadow_0_1" result="shape"/>
</filter>
<clipPath id="clip0_0_1">
<rect width="1920" height="8689" fill="white" transform="translate(-601 -8576)"/>
</clipPath>
</defs>
</svg>
