<svg width="42" height="25" viewBox="0 0 42 25" fill="none" xmlns="http://www.w3.org/2000/svg">
<rect width="42" height="25" fill="#E5E5E5"/>
<g clip-path="url(#clip0_0_1)" filter="url(#filter0_d_0_1)">
<rect width="1920" height="8689" transform="translate(-760 -8576)" fill="white"/>
<rect width="1920" height="8689" transform="translate(-760 -8576)" fill="white"/>
<rect x="-760" y="-542" width="1921" height="655" fill="#222327"/>
<rect width="42" height="25" rx="5" fill="#FB0111"/>
<path d="M20.9981 10.6657C19.7128 10.6657 18.6638 11.7146 18.6638 13C18.6638 14.2854 19.7128 15.3343 20.9981 15.3343C22.2835 15.3343 23.3324 14.2854 23.3324 13C23.3324 11.7146 22.2835 10.6657 20.9981 10.6657ZM27.9992 13C27.9992 12.0333 28.008 11.0754 27.9537 10.1105C27.8994 8.98979 27.6437 7.99512 26.8242 7.17556C26.0029 6.35426 25.01 6.10034 23.8893 6.04605C22.9226 5.99176 21.9648 6.00052 20.9999 6.00052C20.0332 6.00052 19.0754 5.99176 18.1105 6.04605C16.9897 6.10034 15.9951 6.35601 15.1755 7.17556C14.3543 7.99687 14.1003 8.98979 14.0461 10.1105C13.9918 11.0772 14.0005 12.0351 14.0005 13C14.0005 13.9649 13.9918 14.9246 14.0461 15.8895C14.1003 17.0102 14.356 18.0049 15.1755 18.8244C15.9968 19.6457 16.9897 19.8997 18.1105 19.9539C19.0771 20.0082 20.035 19.9995 20.9999 19.9995C21.9665 19.9995 22.9244 20.0082 23.8893 19.9539C25.01 19.8997 26.0047 19.644 26.8242 18.8244C27.6455 18.0031 27.8994 17.0102 27.9537 15.8895C28.0097 14.9246 27.9992 13.9667 27.9992 13ZM20.9981 16.5917C19.0106 16.5917 17.4065 14.9876 17.4065 13C17.4065 11.0124 19.0106 9.40832 20.9981 9.40832C22.9857 9.40832 24.5897 11.0124 24.5897 13C24.5897 14.9876 22.9857 16.5917 20.9981 16.5917ZM24.7368 10.1C24.2728 10.1 23.898 9.72529 23.898 9.26122C23.898 8.79716 24.2728 8.42241 24.7368 8.42241C25.2009 8.42241 25.5756 8.79716 25.5756 9.26122C25.5758 9.37142 25.5542 9.48056 25.5121 9.58239C25.47 9.68422 25.4082 9.77675 25.3303 9.85467C25.2523 9.93258 25.1598 9.99437 25.058 10.0365C24.9562 10.0786 24.847 10.1002 24.7368 10.1Z" fill="white"/>
</g>
<defs>
<filter id="filter0_d_0_1" x="-764" y="-8576" width="1928" height="8697" filterUnits="userSpaceOnUse" color-interpolation-filters="sRGB">
<feFlood flood-opacity="0" result="BackgroundImageFix"/>
<feColorMatrix in="SourceAlpha" type="matrix" values="0 0 0 0 0 0 0 0 0 0 0 0 0 0 0 0 0 0 127 0" result="hardAlpha"/>
<feOffset dy="4"/>
<feGaussianBlur stdDeviation="2"/>
<feComposite in2="hardAlpha" operator="out"/>
<feColorMatrix type="matrix" values="0 0 0 0 0 0 0 0 0 0 0 0 0 0 0 0 0 0 0.25 0"/>
<feBlend mode="normal" in2="BackgroundImageFix" result="effect1_dropShadow_0_1"/>
<feBlend mode="normal" in="SourceGraphic" in2="effect1_dropShadow_0_1" result="shape"/>
</filter>
<clipPath id="clip0_0_1">
<rect width="1920" height="8689" fill="white" transform="translate(-760 -8576)"/>
</clipPath>
</defs>
</svg>
