<svg width="31" height="45" viewBox="0 0 31 45" fill="none" xmlns="http://www.w3.org/2000/svg">
<path d="M8.44259 39.9323C8.44347 40.4852 8.60695 41.0266 8.91368 41.4871L10.4157 43.7449C10.6723 44.1309 11.0203 44.4475 11.4288 44.6664C11.8373 44.8854 12.2936 45 12.7571 45H18.1807C18.6441 45 19.1004 44.8854 19.5089 44.6664C19.9174 44.4475 20.2654 44.1309 20.522 43.7449L22.024 41.4871C22.3306 41.0265 22.4945 40.4856 22.4951 39.9323L22.4986 36.5618H8.4382L8.44259 39.9323ZM0 15.4685C0 19.3681 1.44577 22.9259 3.82843 25.6443C5.28036 27.301 7.5514 30.762 8.41711 33.6817C8.42062 33.7045 8.42326 33.7274 8.42677 33.7502H22.5101C22.5136 33.7274 22.5162 33.7054 22.5197 33.6817C23.3854 30.762 25.6565 27.301 27.1084 25.6443C29.4911 22.9259 30.9368 19.3681 30.9368 15.4685C30.9368 6.90901 23.9857 -0.0262917 15.4201 7.4932e-05C6.45455 0.0273204 0 7.29221 0 15.4685ZM15.4684 8.4374C11.5916 8.4374 8.43732 11.5917 8.43732 15.4685C8.43732 16.2454 7.80804 16.8747 7.0311 16.8747C6.25416 16.8747 5.62488 16.2454 5.62488 15.4685C5.62488 10.0405 10.0404 5.62496 15.4684 5.62496C16.2454 5.62496 16.8746 6.25424 16.8746 7.03118C16.8746 7.80811 16.2454 8.4374 15.4684 8.4374Z" fill="black"/>
</svg>
