<svg width="18" height="20" viewBox="0 0 18 20" fill="none" xmlns="http://www.w3.org/2000/svg">
<path d="M12.9748 5.625H15.5111C15.6645 5.62515 15.8123 5.68277 15.9261 5.78669C16.0398 5.89062 16.1112 6.03344 16.1265 6.1875L16.5043 10H15.2584L14.9488 6.875H12.9748V8.75C12.9748 8.91576 12.9096 9.07473 12.7935 9.19194C12.6774 9.30915 12.5199 9.375 12.3556 9.375C12.1914 9.375 12.0339 9.30915 11.9178 9.19194C11.8017 9.07473 11.7365 8.91576 11.7365 8.75V6.875H6.78289V8.75C6.78289 8.91576 6.71766 9.07473 6.60154 9.19194C6.48541 9.30915 6.32792 9.375 6.1637 9.375C5.99948 9.375 5.84198 9.30915 5.72586 9.19194C5.60974 9.07473 5.5445 8.91576 5.5445 8.75V6.875H3.56927L2.57856 16.875H9.25968V18.125H1.89373C1.80725 18.1249 1.72174 18.1065 1.64272 18.0711C1.5637 18.0356 1.49291 17.9838 1.43493 17.919C1.37695 17.8543 1.33305 17.778 1.30606 17.695C1.27908 17.6121 1.2696 17.5244 1.27825 17.4375L2.3928 6.1875C2.40814 6.03344 2.47959 5.89062 2.5933 5.78669C2.70701 5.68277 2.85489 5.62515 3.00828 5.625H5.5445V5.18875C5.5445 3.02125 7.19899 1.25 9.25968 1.25C11.3204 1.25 12.9748 3.02125 12.9748 5.18875V5.62625V5.625ZM11.7365 5.625V5.18875C11.7365 3.69625 10.6194 2.5 9.25968 2.5C7.89992 2.5 6.78289 3.69625 6.78289 5.18875V5.62625H11.7365V5.625ZM15.6337 15.075L14.2132 13.6425V18.125C14.2132 18.2908 14.148 18.4497 14.0319 18.5669C13.9158 18.6842 13.7583 18.75 13.594 18.75C13.4298 18.75 13.2723 18.6842 13.1562 18.5669C13.0401 18.4497 12.9748 18.2908 12.9748 18.125V13.6425L11.5556 15.075C11.4985 15.1347 11.4302 15.1823 11.3547 15.2151C11.2791 15.2478 11.1979 15.2651 11.1157 15.2658C11.0334 15.2665 10.9519 15.2507 10.8758 15.2193C10.7997 15.1878 10.7306 15.1414 10.6724 15.0827C10.6143 15.0241 10.5683 14.9543 10.5372 14.8775C10.5061 14.8007 10.4904 14.7184 10.4911 14.6354C10.4918 14.5524 10.5089 14.4704 10.5413 14.3941C10.5738 14.3179 10.621 14.2489 10.6801 14.1912L13.1569 11.6912C13.273 11.5741 13.4305 11.5083 13.5947 11.5083C13.7588 11.5083 13.9163 11.5741 14.0324 11.6912L16.5092 14.1912C16.5684 14.2489 16.6155 14.3179 16.648 14.3941C16.6804 14.4704 16.6975 14.5524 16.6982 14.6354C16.6989 14.7184 16.6833 14.8007 16.6521 14.8775C16.621 14.9543 16.575 15.0241 16.5169 15.0827C16.4587 15.1414 16.3896 15.1878 16.3135 15.2193C16.2374 15.2507 16.1559 15.2665 16.0737 15.2658C15.9915 15.2651 15.9102 15.2478 15.8347 15.2151C15.7591 15.1823 15.6908 15.1347 15.6337 15.075Z" fill="white" stroke="white"/>
</svg>
