<svg width="46" height="37" viewBox="0 0 46 37" fill="none" xmlns="http://www.w3.org/2000/svg">
<path d="M41.5737 14.477L41.6548 14.6809L41.8597 14.7593C43.9852 15.5717 45.5 17.6226 45.5 20.0417V24.6667C45.5 26.0904 44.96 27.3779 44.0894 28.3786L43.9667 28.5197V28.7068V33.9167C43.9667 35.3457 42.8147 36.5 41.4 36.5H38.3333C36.9187 36.5 35.7667 35.3457 35.7667 33.9167V30.8333V30.3333H35.2667H10.7333H10.2333V30.8333V33.9167C10.2333 35.3457 9.08135 36.5 7.66667 36.5H4.6C3.18532 36.5 2.03333 35.3457 2.03333 33.9167V28.7068V28.5199L1.91071 28.3788C1.03998 27.377 0.5 26.0894 0.5 24.6667V20.0417C0.5 17.6226 2.01476 15.5717 4.14028 14.7593L4.34523 14.6809L4.42633 14.477L5.5035 11.7695L5.50351 11.7695L7.41345 6.96818C8.97791 3.03623 12.7065 0.5 16.9146 0.5H29.0854C33.2944 0.5 37.0221 3.03619 38.5865 6.96815C38.5865 6.96816 38.5865 6.96817 38.5865 6.96818L40.4965 11.7695L40.9611 11.5847L40.4965 11.7695L41.5737 14.477ZM12.1787 8.8888L12.1787 8.88886L10.2687 13.6902L9.99633 14.375H10.7333H35.2667H36.0037L35.7313 13.6902L33.8213 8.88886L33.8213 8.8888C33.0474 6.94414 31.1727 5.66667 29.0854 5.66667H16.9146C14.8273 5.66667 12.9526 6.94414 12.1787 8.8888ZM4.1 21.5737C4.1 22.6091 4.44649 23.5109 5.08938 24.1553C5.73236 24.7997 6.6327 25.1474 7.66667 25.1474C7.86816 25.1474 8.08966 25.1517 8.32323 25.1562C9.09202 25.1711 9.99159 25.1886 10.739 25.0637C11.2336 24.9811 11.7346 24.8274 12.1194 24.5188C12.5298 24.1898 12.7667 23.7175 12.7667 23.1105C12.7667 22.5332 12.554 21.929 12.244 21.3697C11.9306 20.8043 11.4981 20.2491 11.0106 19.7605C10.5232 19.272 9.96918 18.8384 9.40491 18.5242C8.84682 18.2134 8.24354 18 7.66667 18C6.6327 18 5.73236 18.3477 5.08938 18.9921C4.44649 19.6365 4.1 20.5383 4.1 21.5737ZM33.2333 23.1105C33.2333 23.7175 33.4702 24.1898 33.8806 24.5188C34.2654 24.8274 34.7664 24.9811 35.2609 25.0637C36.0084 25.1886 36.908 25.1711 37.6768 25.1562C37.9103 25.1517 38.1318 25.1474 38.3333 25.1474C39.3673 25.1474 40.2676 24.7997 40.9106 24.1553C41.5535 23.5109 41.9 22.6091 41.9 21.5737C41.9 20.5383 41.5535 19.6365 40.9106 18.9921C40.2676 18.3477 39.3673 18 38.3333 18C37.7565 18 37.1532 18.2134 36.5951 18.5242C36.0308 18.8384 35.4768 19.272 34.9894 19.7605C34.5019 20.2491 34.0694 20.8043 33.756 21.3697C33.446 21.929 33.2333 22.5332 33.2333 23.1105Z" fill="black" stroke="black"/>
</svg>
