<svg width="46" height="41" viewBox="0 0 46 41" fill="none" xmlns="http://www.w3.org/2000/svg">
<path d="M42.1762 24.1291L45.9515 7.47281C46.2241 6.2702 45.3125 5.125 44.0825 5.125H12.7145L11.9825 1.5367C11.8001 0.642307 11.0152 0 10.1047 0H1.91667C0.858108 0 0 0.860439 0 1.92188V3.20312C0 4.26456 0.858108 5.125 1.91667 5.125H7.4976L13.1077 32.6266C11.7655 33.4006 10.8611 34.8518 10.8611 36.5156C10.8611 38.9923 12.8634 41 15.3333 41C17.8033 41 19.8056 38.9923 19.8056 36.5156C19.8056 35.2605 19.2907 34.1265 18.462 33.3125H35.2046C34.376 34.1265 33.8611 35.2605 33.8611 36.5156C33.8611 38.9923 35.8634 41 38.3333 41C40.8033 41 42.8056 38.9923 42.8056 36.5156C42.8056 34.7401 41.7763 33.2058 40.2836 32.4793L40.7242 30.5353C40.9968 29.3327 40.0852 28.1875 38.8552 28.1875H17.4191L16.8964 25.625H40.3073C41.2022 25.625 41.978 25.0041 42.1762 24.1291Z" fill="#CD3B40"/>
</svg>
