<svg width="40" height="45" viewBox="0 0 40 45" fill="none" xmlns="http://www.w3.org/2000/svg">
<path d="M17.6087 0V7.82609H21.5217V0H17.6087ZM31.8913 4.48043L25.9043 10.35L28.6435 13.1283L34.6304 7.2587L31.8913 4.48043ZM7.2587 4.48043L4.48043 7.2587L10.35 13.1283L13.1283 10.35L7.2587 4.48043ZM19.5652 11.7391C17.4896 11.7391 15.499 12.5637 14.0313 14.0313C12.5637 15.499 11.7391 17.4896 11.7391 19.5652V31.3043H7.82609V35.2174H13.6957V45H17.6087V35.2174H21.5217V45H25.4348V35.2174H31.3043V31.3043H27.3913V19.5652C27.3913 17.4896 26.5668 15.499 25.0991 14.0313C23.6314 12.5637 21.6408 11.7391 19.5652 11.7391ZM0 17.6087V21.5217H7.82609V17.6087H0ZM31.3043 17.6087V21.5217H39.1304V17.6087H31.3043Z" fill="black"/>
</svg>
