<svg width="43" height="46" viewBox="0 0 43 46" fill="none" xmlns="http://www.w3.org/2000/svg">
<path d="M31.0988 9.18459C32.209 9.18459 33.2738 8.74356 34.0588 7.95853C34.8439 7.17349 35.2849 6.10876 35.2849 4.99855C35.2849 3.88834 34.8439 2.8236 34.0588 2.03856C33.2738 1.25353 32.209 0.8125 31.0988 0.8125C29.9886 0.8125 28.9239 1.25353 28.1389 2.03856C27.3538 2.8236 26.9128 3.88834 26.9128 4.99855C26.9128 6.10876 27.3538 7.17349 28.1389 7.95853C28.9239 8.74356 29.9886 9.18459 31.0988 9.18459ZM23.564 38.2776L25.657 29.0683L30.0523 33.2544V45.8125H34.2384V30.1148L29.843 25.9288L31.0988 19.6497C32.5328 21.2932 34.3021 22.6106 36.2878 23.5131C38.2734 24.4157 40.4293 24.8825 42.6105 24.8823V20.6962C38.9267 20.759 35.4942 18.8334 33.6105 15.673L31.5174 12.3241C30.764 11.0683 29.4244 10.2311 27.9593 10.2311C27.3314 10.2311 26.9128 10.4404 26.2849 10.4404L15.4012 15.0451V24.8823H19.5872V17.766L23.3547 16.3009L20.0058 33.2544L9.75 31.1613L8.91279 35.3474L23.564 38.2776ZM4.93605 16.5102C4.38094 16.5102 3.84857 16.2897 3.45606 15.8971C3.06354 15.5046 2.84302 14.9723 2.84302 14.4172C2.84302 13.862 3.06354 13.3297 3.45606 12.9372C3.84857 12.5446 4.38094 12.3241 4.93605 12.3241H11.2151V16.5102H4.93605ZM7.02907 8.13808C6.47397 8.13808 5.9416 7.91757 5.54908 7.52505C5.15656 7.13253 4.93605 6.60016 4.93605 6.04506C4.93605 5.48995 5.15656 4.95759 5.54908 4.56507C5.9416 4.17255 6.47397 3.95203 7.02907 3.95203H17.4942V8.13808H7.02907ZM2.84302 24.8823C2.28792 24.8823 1.75555 24.6618 1.36303 24.2692C0.970514 23.8767 0.75 23.3443 0.75 22.7892C0.75 22.2341 0.970514 21.7018 1.36303 21.3093C1.75555 20.9167 2.28792 20.6962 2.84302 20.6962H11.2151V24.8823H2.84302Z" fill="black"/>
</svg>
