<svg width="48" height="43" viewBox="0 0 48 43" fill="none" xmlns="http://www.w3.org/2000/svg">
<path d="M23.9998 9.65485L5.78901 25.8428C5.65401 25.9655 5.48151 26.0226 5.33317 26.1242V41.6563C5.33317 42.3987 5.92984 43 6.6665 43H19.1023L15.9998 36.8851L24.6756 31.5101L19.6623 21.4975L31.9998 32.9849L23.324 38.3599L26.6506 43H41.3331C42.0697 43 42.6664 42.3987 42.6664 41.6563V26.1275C42.5247 26.0301 42.3564 25.9747 42.2281 25.8588L23.9998 9.65485ZM47.5572 19.8438L42.6664 15.4909V4.03125C42.6664 3.28883 42.0697 2.6875 41.3331 2.6875H35.9998C35.2631 2.6875 34.6664 3.28883 34.6664 4.03125V8.3724L26.229 0.865881C25.5931 0.289748 24.7965 0.00084168 23.9998 1.83639e-06C23.2031 -0.000838007 22.4081 0.286389 21.7748 0.862521L0.442353 19.8438C-0.105146 20.3402 -0.150979 21.1893 0.34152 21.7419L2.12485 23.7424C2.61651 24.2942 3.45984 24.3404 4.00818 23.844L23.1181 6.85565C23.6223 6.40801 24.3781 6.40801 24.8823 6.85565L43.9922 23.8432C44.5397 24.3387 45.3831 24.2933 45.8756 23.7415L47.6589 21.741C48.1506 21.1893 48.1056 20.3393 47.5572 19.8438Z" fill="black"/>
</svg>
