<svg width="22" height="24" viewBox="0 0 22 24" fill="none" xmlns="http://www.w3.org/2000/svg">
<path d="M11.1497 24C12.79 24 14.1204 22.657 14.1204 21H8.17901C8.17901 22.657 9.50949 24 11.1497 24ZM21.1523 16.9823C20.255 16.0092 18.5763 14.5453 18.5763 9.75C18.5763 6.10781 16.0463 3.19219 12.6348 2.47688V1.5C12.6348 0.671719 11.9698 0 11.1497 0C10.3296 0 9.66459 0.671719 9.66459 1.5V2.47688C6.25317 3.19219 3.72317 6.10781 3.72317 9.75C3.72317 14.5453 2.04439 16.0092 1.14719 16.9823C0.868553 17.2847 0.745025 17.6461 0.747347 18C0.752455 18.7687 1.35013 19.5 2.23804 19.5H20.0614C20.9493 19.5 21.5474 18.7687 21.5521 18C21.5544 17.6461 21.4309 17.2842 21.1523 16.9823Z" fill="white"/>
</svg>
