<svg width="27" height="24" viewBox="0 0 27 24" fill="none" xmlns="http://www.w3.org/2000/svg">
<path d="M25.1808 16.8056H7.92187L8.78844 15.0692L23.1868 15.0436C23.6737 15.0436 24.0911 14.7014 24.178 14.2282L26.172 3.24848C26.2242 2.96052 26.1459 2.664 25.9546 2.43876C25.8601 2.32791 25.7422 2.23862 25.6091 2.17708C25.4759 2.11554 25.3308 2.08322 25.1837 2.08237L6.86691 2.0225L6.71041 1.29831C6.61187 0.836432 6.18873 0.5 5.70762 0.5H1.22986C0.958525 0.5 0.698302 0.606036 0.506439 0.794781C0.314575 0.983526 0.206787 1.23952 0.206787 1.50645C0.206787 1.77337 0.314575 2.02937 0.506439 2.21811C0.698302 2.40686 0.958525 2.51289 1.22986 2.51289H4.87873L5.56271 5.71185L7.24658 13.7321L5.07871 17.2133C4.96613 17.3628 4.89832 17.5402 4.88295 17.7257C4.86759 17.9111 4.90528 18.097 4.99176 18.2625C5.16565 18.6018 5.51634 18.8156 5.9047 18.8156H7.72479C7.33677 19.3226 7.12719 19.9401 7.12775 20.5747C7.12775 22.1885 8.46094 23.5 10.1013 23.5C11.7417 23.5 13.0749 22.1885 13.0749 20.5747C13.0749 19.9389 12.8604 19.3203 12.4779 18.8156H17.1469C16.7589 19.3226 16.5493 19.9401 16.5499 20.5747C16.5499 22.1885 17.8831 23.5 19.5235 23.5C21.1639 23.5 22.4971 22.1885 22.4971 20.5747C22.4971 19.9389 22.2826 19.3203 21.9 18.8156H25.1837C25.746 18.8156 26.2068 18.3651 26.2068 17.8092C26.2051 17.5425 26.0963 17.2873 25.9041 17.0993C25.7119 16.9113 25.4519 16.8057 25.1808 16.8056ZM7.29295 4.00688L23.9809 4.06105L22.3463 13.0649L9.23766 13.0877L7.29295 4.00688ZM10.1013 21.4757C9.59704 21.4757 9.1855 21.0708 9.1855 20.5747C9.1855 20.0787 9.59704 19.6738 10.1013 19.6738C10.6056 19.6738 11.0172 20.0787 11.0172 20.5747C11.0172 20.8137 10.9207 21.0429 10.7489 21.2118C10.5772 21.3808 10.3442 21.4757 10.1013 21.4757ZM19.5235 21.4757C19.0192 21.4757 18.6076 21.0708 18.6076 20.5747C18.6076 20.0787 19.0192 19.6738 19.5235 19.6738C20.0278 19.6738 20.4393 20.0787 20.4393 20.5747C20.4393 20.8137 20.3428 21.0429 20.1711 21.2118C19.9993 21.3808 19.7664 21.4757 19.5235 21.4757Z" fill="white"/>
</svg>
