<svg width="39" height="50" viewBox="0 0 39 50" fill="none" xmlns="http://www.w3.org/2000/svg">
<path d="M28.9357 14.0625C27.2192 14.0625 25.8276 12.671 25.8276 10.9544V3.125C25.8276 1.39912 27.2192 0 28.9357 0C30.6523 0 32.0438 1.39912 32.0438 3.125V10.9544C32.0438 12.671 30.6523 14.0625 28.9357 14.0625V14.0625ZM36.706 15.625H2.51694C1.65862 15.625 0.962891 16.3245 0.962891 17.1875V20.3125C0.962891 21.1755 1.65862 21.875 2.51694 21.875V21.875C3.37521 21.875 4.07098 22.5708 4.07098 23.429V25C4.07098 31.0187 7.45563 36.2424 12.4155 38.8523C14.6583 40.0324 16.5034 42.1324 16.5034 44.6668V46.8919C16.5034 48.6085 17.8949 50 19.6114 50V50C21.328 50 22.7195 48.6085 22.7195 46.8919V44.6668C22.7195 42.1324 24.5646 40.0324 26.8074 38.8523C31.7673 36.2424 35.1519 31.0187 35.1519 25V23.429C35.1519 22.5708 35.8477 21.875 36.706 21.875V21.875C37.5643 21.875 38.26 21.1755 38.26 20.3125V17.1875C38.26 16.3245 37.5643 15.625 36.706 15.625ZM10.2872 14.0625C12.0037 14.0625 13.3953 12.671 13.3953 10.9544V3.125C13.3953 1.39912 12.0037 0 10.2872 0C8.57063 0 7.17908 1.39912 7.17908 3.125V10.9544C7.17908 12.671 8.57062 14.0625 10.2872 14.0625V14.0625Z" fill="white"/>
</svg>
