<svg width="51" height="39" viewBox="0 0 51 39" fill="none" xmlns="http://www.w3.org/2000/svg">
<path d="M24.6283 10.0719L12.3394 20.2331C10.0419 22.1329 8.71175 24.9586 8.71175 27.9398V37.437C8.71175 37.8048 8.85728 38.1575 9.11632 38.4176C9.37536 38.6776 9.72669 38.8237 10.093 38.8237L19.7671 38.7986C20.1322 38.7968 20.4818 38.6499 20.7393 38.39C20.9969 38.1301 21.1414 37.7785 21.1414 37.4119V29.1167C21.1414 28.7489 21.287 28.3962 21.546 28.1362C21.805 27.8761 22.1564 27.73 22.5227 27.73H28.0478C28.4141 27.73 28.7654 27.8761 29.0245 28.1362C29.2835 28.3962 29.4291 28.7489 29.4291 29.1167V37.4058C29.4285 37.5883 29.4638 37.7691 29.5329 37.9378C29.6021 38.1066 29.7038 38.2599 29.8321 38.3892C29.9604 38.5184 30.1129 38.6209 30.2807 38.6909C30.4486 38.7609 30.6286 38.7969 30.8103 38.7969L40.4809 38.8237C40.8473 38.8237 41.1986 38.6776 41.4576 38.4176C41.7167 38.1575 41.8622 37.8048 41.8622 37.437V27.9318C41.8622 24.9497 40.5313 22.1233 38.2326 20.2236L25.9491 10.0719C25.762 9.9205 25.529 9.83795 25.2887 9.83795C25.0484 9.83795 24.8154 9.9205 24.6283 10.0719ZM49.77 19.0171L46.1774 16.0441C43.8817 14.1444 42.5528 11.3198 42.5528 8.33998V1.04004C42.5528 0.764202 42.4437 0.499665 42.2494 0.30462C42.0551 0.109575 41.7916 0 41.5169 0H36.6824C36.4077 0 36.1442 0.109575 35.9499 0.30462C35.7556 0.499665 35.6465 0.764202 35.6465 1.04004C35.6465 3.5472 32.7275 4.92212 30.7945 3.32547L27.9174 0.949034C27.1757 0.336261 26.245 0.00122494 25.2844 0.00122494C24.3238 0.00122494 23.3931 0.336261 22.6513 0.949034L0.798814 19.0171C0.693914 19.1041 0.607125 19.2111 0.543407 19.3318C0.479689 19.4525 0.440291 19.5847 0.427463 19.7207C0.414636 19.8567 0.428631 19.994 0.468649 20.1246C0.508666 20.2551 0.573922 20.3765 0.660688 20.4818L2.86208 23.1686C2.94861 23.2742 3.05504 23.3617 3.17528 23.4259C3.29552 23.4902 3.42721 23.5301 3.56281 23.5432C3.69841 23.5563 3.83525 23.5425 3.96551 23.5024C4.09577 23.4624 4.21688 23.3969 4.32191 23.3098L24.6283 6.51844C24.8154 6.36704 25.0484 6.28449 25.2887 6.28449C25.529 6.28449 25.762 6.36704 25.9491 6.51844L46.2564 23.3098C46.3612 23.3969 46.4821 23.4625 46.6122 23.5026C46.7423 23.5428 46.879 23.5569 47.0145 23.544C47.1499 23.5311 47.2816 23.4916 47.4018 23.4276C47.5221 23.3636 47.6286 23.2765 47.7153 23.1712L49.9167 20.4844C50.0034 20.3785 50.0684 20.2565 50.1079 20.1253C50.1475 19.9942 50.1608 19.8565 50.1472 19.7201C50.1335 19.5838 50.0932 19.4515 50.0284 19.3308C49.9637 19.2102 49.8759 19.1035 49.77 19.0171Z" fill="white"/>
</svg>
